name rise30.8019peak61.5557fall86.2505.mot
datacolumns 19
datarows 23
range 8.64330500000000 8.67996600000000
endheader
time	ground_force1_vx	ground_force1_vy	ground_force1_vz	ground_force1_px	ground_force1_py	ground_force1_pz	ground_force2_vx	ground_force2_vy	ground_force2_vz	ground_force2_px	ground_force2_py	ground_force2_pz	ground_torque1_x	ground_torque1_y	ground_torque1_z	ground_torque2_x	ground_torque2_y	ground_torque2_z	
8.64330500000000	-7.77868300000000	41.04015500000000	-9.77415900000000	0.24930000000000	0.00000000000000	0.08669800000000	-61.92538900000000	746.74922600000002	-37.12689300000000	0.01626200000000	0.00000000000000	-0.07023500000000	0.00000000000000	-4.78416800000000	0.00000000000000	0.00000000000000	-9.85515200000000	0.00000000000000	
8.64497400000000	-8.44287600000000	48.12779200000000	-11.00508000000000	0.25512600000000	0.00000000000000	0.08721400000000	-62.71111700000000	743.47157100000004	-36.74676700000000	0.01543900000000	0.00000000000000	-0.07011100000000	0.00000000000000	-5.49386600000000	0.00000000000000	0.00000000000000	-9.90741100000000	0.00000000000000	
8.64663300000000	-8.93682500000000	55.31162000000000	-12.12936200000000	0.26046100000000	0.00000000000000	0.08768200000000	-63.50986500000000	740.08604300000002	-36.35304700000000	0.01462100000000	0.00000000000000	-0.06998400000000	0.00000000000000	-6.17169300000000	0.00000000000000	0.00000000000000	-9.96319500000000	0.00000000000000	
8.64830100000000	-9.23948400000000	62.49972300000000	-13.12147400000000	0.26537300000000	0.00000000000000	0.08811000000000	-64.32026500000001	736.58969999999999	-35.94559600000000	0.01380800000000	0.00000000000000	-0.06985300000000	0.00000000000000	-6.80283700000000	0.00000000000000	0.00000000000000	-10.02234800000000	0.00000000000000	
8.64996800000000	-9.33916200000000	69.62246300000000	-13.96450600000000	0.26991900000000	0.00000000000000	0.08850200000000	-65.14084699999999	732.97952499999997	-35.52428200000000	0.01300200000000	0.00000000000000	-0.06971900000000	0.00000000000000	-7.37641300000000	0.00000000000000	0.00000000000000	-10.08469700000000	0.00000000000000	
8.65163700000000	-9.23329300000000	76.63465300000000	-14.65029500000000	0.27414200000000	0.00000000000000	0.08886600000000	-65.97004900000000	729.25244299999997	-35.08898600000000	0.01220200000000	0.00000000000000	-0.06958200000000	0.00000000000000	-7.88572600000000	0.00000000000000	0.00000000000000	-10.15005500000000	0.00000000000000	
8.65330200000000	-8.92749700000000	83.51534700000001	-15.17880700000000	0.27808000000000	0.00000000000000	0.08920500000000	-66.80620999999999	725.40533200000004	-34.63959700000000	0.01140900000000	0.00000000000000	-0.06944100000000	0.00000000000000	-8.32816900000000	0.00000000000000	0.00000000000000	-10.21822100000000	0.00000000000000	
8.65497200000000	-8.43413900000000	90.26568200000000	-15.55695400000000	0.28176300000000	0.00000000000000	0.08952200000000	-67.64758000000000	721.43504199999995	-34.17602200000000	0.01062400000000	0.00000000000000	-0.06929700000000	0.00000000000000	-8.70478000000000	0.00000000000000	0.00000000000000	-10.28897800000000	0.00000000000000	
8.65663600000000	-7.77056900000000	96.90525700000001	-15.79705700000000	0.28521500000000	0.00000000000000	0.08982000000000	-68.49231600000000	717.33840799999996	-33.69818300000000	0.00984600000000	0.00000000000000	-0.06914900000000	0.00000000000000	-9.01959100000000	0.00000000000000	0.00000000000000	-10.36209800000000	0.00000000000000	
8.65830100000000	-6.95727500000000	103.46763600000000	-15.91512000000000	0.28845800000000	0.00000000000000	0.09010100000000	-69.33849300000000	713.11226699999997	-33.20602400000000	0.00907700000000	0.00000000000000	-0.06899900000000	0.00000000000000	-9.27882700000000	0.00000000000000	0.00000000000000	-10.43733700000000	0.00000000000000	
8.65997000000000	-6.01608600000000	109.99547699999999	-15.92911100000000	0.29151000000000	0.00000000000000	0.09036900000000	-70.18409800000001	708.75347899999997	-32.69950700000000	0.00831600000000	0.00000000000000	-0.06884500000000	0.00000000000000	-9.49006600000000	0.00000000000000	0.00000000000000	-10.51443600000000	0.00000000000000	
8.66163400000000	-4.96857700000000	116.53575200000000	-15.85737600000000	0.29438600000000	0.00000000000000	0.09062400000000	-71.02704199999999	704.25893900000005	-32.17862300000000	0.00756400000000	0.00000000000000	-0.06868800000000	0.00000000000000	-9.66143900000000	0.00000000000000	0.00000000000000	-10.59312700000000	0.00000000000000	
8.66330800000000	-3.83477300000000	123.13543900000001	-15.71729400000000	0.29709900000000	0.00000000000000	0.09086700000000	-71.86516100000000	699.62560199999996	-31.64338700000000	0.00682000000000	0.00000000000000	-0.06852800000000	0.00000000000000	-9.80090900000000	0.00000000000000	0.00000000000000	-10.67312700000000	0.00000000000000	
8.66497200000000	-2.63218700000000	129.83792299999999	-15.52424100000000	0.29965900000000	0.00000000000000	0.09110000000000	-72.69622000000000	694.85049900000001	-31.09384400000000	0.00608600000000	0.00000000000000	-0.06836500000000	0.00000000000000	-9.91569700000000	0.00000000000000	0.00000000000000	-10.75414000000000	0.00000000000000	
8.66663700000000	-1.37522000000000	136.68027300000000	-15.29088000000000	0.30207800000000	0.00000000000000	0.09132400000000	-73.51792000000000	689.93075799999997	-30.53007000000000	0.00536100000000	0.00000000000000	-0.06819900000000	0.00000000000000	-10.01185900000000	0.00000000000000	0.00000000000000	-10.83586100000000	0.00000000000000	
8.66830500000000	-0.07489900000000	143.69144000000000	-15.02678600000000	0.30436200000000	0.00000000000000	0.09154000000000	-74.32790100000000	684.86362399999996	-29.95217400000000	0.00464500000000	0.00000000000000	-0.06803100000000	0.00000000000000	-10.09403000000000	0.00000000000000	0.00000000000000	-10.91797300000000	0.00000000000000	
8.66997100000000	1.26108400000000	150.89135800000000	-14.73836300000000	0.30652000000000	0.00000000000000	0.09174900000000	-75.12375000000000	679.64648299999999	-29.36030300000000	0.00393900000000	0.00000000000000	-0.06785900000000	0.00000000000000	-10.16532300000000	0.00000000000000	0.00000000000000	-11.00014900000000	0.00000000000000	
8.67164000000000	2.62809200000000	158.29083600000001	-14.42901800000000	0.30855700000000	0.00000000000000	0.09195100000000	-75.90300800000000	674.27688000000001	-28.75463700000000	0.00324100000000	0.00000000000000	-0.06768500000000	0.00000000000000	-10.22736000000000	0.00000000000000	0.00000000000000	-11.08205400000000	0.00000000000000	
8.67330000000000	4.02408600000000	165.89212100000000	-14.09951800000000	0.31048000000000	0.00000000000000	0.09214700000000	-76.66317200000000	668.75254199999995	-28.13539700000000	0.00255300000000	0.00000000000000	-0.06750800000000	0.00000000000000	-10.28041500000000	0.00000000000000	0.00000000000000	-11.16334100000000	0.00000000000000	
8.67496700000000	5.44905700000000	173.68995799999999	-13.74848900000000	0.31229400000000	0.00000000000000	0.09233700000000	-77.40170500000001	663.07140200000003	-27.50284300000000	0.00187400000000	0.00000000000000	-0.06732900000000	0.00000000000000	-10.32363700000000	0.00000000000000	0.00000000000000	-11.24365800000000	0.00000000000000	
8.67663300000000	6.90441300000000	181.67297199999999	-13.37297300000000	0.31400200000000	0.00000000000000	0.09252200000000	-78.11604400000000	657.23161300000004	-26.85727500000000	0.00120400000000	0.00000000000000	-0.06714700000000	0.00000000000000	-10.35531600000000	0.00000000000000	0.00000000000000	-11.32264600000000	0.00000000000000	
8.67830300000000	8.39237200000000	189.82522100000000	-12.96900700000000	0.31561000000000	0.00000000000000	0.09270300000000	-78.80360400000001	651.23157400000002	-26.19903700000000	0.00054300000000	0.00000000000000	-0.06696200000000	0.00000000000000	-10.37316800000000	0.00000000000000	0.00000000000000	-11.39993900000000	0.00000000000000	
8.67996600000000	9.91540800000000	198.12776800000000	-12.53216900000000	0.31711900000000	0.00000000000000	0.09287800000000	-79.46178600000000	645.06994499999996	-25.52851500000000	-0.00011000000000	0.00000000000000	-0.06677600000000	0.00000000000000	-10.37462100000000	0.00000000000000	0.00000000000000	-11.47516600000000	0.00000000000000	
